<?xml version="1.0" standalone="no"?>
<!DOCTYPE svg PUBLIC "-//W3C//DTD SVG 20010904//EN"
 "http://www.w3.org/TR/2001/REC-SVG-20010904/DTD/svg10.dtd">
<svg version="1.0" xmlns="http://www.w3.org/2000/svg"
 width="411.000000pt" height="411.000000pt" viewBox="0 0 411.000000 411.000000"
 preserveAspectRatio="xMidYMid meet">
<metadata>
Created by potrace 1.11, written by Peter Selinger 2001-2013
</metadata>
<g transform="translate(0.000000,411.000000) scale(0.100000,-0.100000)"
fill="#000000" stroke="none">
<path d="M650 3773 l0 -338 885 0 c487 0 885 -1 885 -3 0 -1 -46 -73 -103
-160 -100 -152 -198 -310 -249 -402 -13 -25 -53 -96 -88 -159 -300 -544 -561
-1277 -654 -1836 -3 -16 -7 -39 -9 -50 -3 -11 -10 -56 -17 -100 -6 -44 -13
-91 -15 -105 -3 -14 -7 -45 -10 -70 -3 -25 -7 -58 -9 -75 -2 -16 -7 -61 -11
-100 -4 -38 -8 -86 -11 -105 -2 -19 -6 -86 -10 -148 l-7 -112 24 -1 c73 -3
580 -1 584 3 2 2 6 17 9 33 3 17 8 39 10 50 2 11 7 40 11 65 4 25 9 54 11 65
4 24 55 319 69 400 5 25 60 309 70 355 47 224 202 721 281 897 8 17 14 34 14
37 0 7 11 31 101 226 207 451 506 902 849 1279 84 93 100 114 137 186 52 100
77 236 54 296 -16 43 -103 119 -180 157 -74 36 -77 37 -220 42 -80 3 -653 6
-1273 8 l-1128 3 0 -338z"/>
<path d="M898 3274 c7 -11 613 -834 652 -884 10 -14 20 -23 23 -20 4 6 474
842 493 880 7 13 11 26 8 29 -2 3 -269 5 -593 5 -432 1 -587 -2 -583 -10z"/>
</g>
</svg>
