<svg width="98" height="140" fill="none" xmlns="http://www.w3.org/2000/svg">
<path fill-rule="evenodd" clip-rule="evenodd" d="M122.996 -39.3384C148.251 -43.9239 177.354 -39.3257 196.013 -21.6996C214.163 -4.55489 211.322 24.0529 216.054 48.568C220.103 69.5451 230.028 91.2157 221.598 110.846C213.378 129.988 190.333 136.055 173.322 148.079C156.612 159.89 142.966 176.077 122.996 180.539C99.6349 185.759 74.4105 185.958 53.1666 174.926C30.0487 162.92 9.54193 143.042 2.49785 117.962C-4.43946 93.2613 3.99812 66.6172 16.4465 44.1839C27.3919 24.4593 49.245 15.6423 66.998 1.726C85.6723 -12.9124 99.6508 -35.0995 122.996 -39.3384Z"/>
</svg>
